# xmcd
#
# Track frame offsets: 
#        150
#        16650
#        34788
#        46549
#        66734
#        82464
#        97590
#        116089
#        133650
#        146941
#        162828
#        183756
#
# Disc length: 2681 seconds
#
# Revision: 5
# Processed by: cddbd v1.5.2PL0 Copyright (c) Steve Scherf et al.
# Submitted via: ExactAudioCopy v1.0b3
#
DISCID=9f0a770c
DTITLE=Sue Foley - Where the action is_
DYEAR=2002
DGENRE=Blues
TTITLE0=Where the action is
TTITLE1=Vertigo blues
TTITLE2=Love disease
TTITLE3=Two bluebirds
TTITLE4=Stupid girl
TTITLE5=Let it go
TTITLE6=Every hour
TTITLE7=Baby, where are you?
TTITLE8=Get yourself together
TTITLE9=Roll with me, Henry
TTITLE10=Down the big road blues
TTITLE11=Gotta keep moving 
EXTD=
EXTT0=
EXTT1=
EXTT2=
EXTT3=
EXTT4=
EXTT5=
EXTT6=
EXTT7=
EXTT8=
EXTT9=
EXTT10=
EXTT11=
PLAYORDER=
